<?xml version="1.0" encoding="UTF-8" standalone="no"?>
<!-- Created with Inkscape (http://www.inkscape.org/) -->
<svg
   xmlns:dc="http://purl.org/dc/elements/1.1/"
   xmlns:cc="http://creativecommons.org/ns#"
   xmlns:rdf="http://www.w3.org/1999/02/22-rdf-syntax-ns#"
   xmlns:svg="http://www.w3.org/2000/svg"
   xmlns="http://www.w3.org/2000/svg"
   xmlns:sodipodi="http://sodipodi.sourceforge.net/DTD/sodipodi-0.dtd"
   xmlns:inkscape="http://www.inkscape.org/namespaces/inkscape"
   width="50"
   height="37"
   id="svg7978"
   sodipodi:version="0.32"
   inkscape:version="0.46"
   version="1.0"
   sodipodi:docname="H_dark.svg"
   inkscape:output_extension="org.inkscape.output.svg.inkscape">
  <defs
     id="defs7980">
    <inkscape:perspective
       sodipodi:type="inkscape:persp3d"
       inkscape:vp_x="0 : 526.18109 : 1"
       inkscape:vp_y="0 : 1000 : 0"
       inkscape:vp_z="744.09448 : 526.18109 : 1"
       inkscape:persp3d-origin="372.04724 : 350.78739 : 1"
       id="perspective7986" />
  </defs>
  <sodipodi:namedview
     id="base"
     pagecolor="#ffffff"
     bordercolor="#666666"
     borderopacity="1.0"
     gridtolerance="10000"
     guidetolerance="10"
     objecttolerance="10"
     inkscape:pageopacity="0.0"
     inkscape:pageshadow="2"
     inkscape:zoom="11.390626"
     inkscape:cx="18.543863"
     inkscape:cy="11.85039"
     inkscape:document-units="px"
     inkscape:current-layer="layer1"
     showgrid="false"
     inkscape:window-width="1280"
     inkscape:window-height="952"
     inkscape:window-x="-4"
     inkscape:window-y="-4" />
  <metadata
     id="metadata7983">
    <rdf:RDF>
      <cc:Work
         rdf:about="">
        <dc:format>image/svg+xml</dc:format>
        <dc:type
           rdf:resource="http://purl.org/dc/dcmitype/StillImage" />
      </cc:Work>
    </rdf:RDF>
  </metadata>
  <g
     inkscape:label="Layer 1"
     inkscape:groupmode="layer"
     id="layer1">
    <path
       style="font-size:14.00498961999999992px;fill:#000000;fill-opacity:0.09803922;fill-rule:nonzero;stroke:none;stroke-width:1.77330696999999993;stroke-linecap:round;stroke-linejoin:round;marker:none;stroke-miterlimit:4;stroke-dasharray:none;stroke-dashoffset:0;stroke-opacity:1;visibility:visible;display:inline;overflow:visible;enable-background:accumulate"
       d="M 5.28125 0 C 5.0063755 0.003064 4.7277907 0.13285799 4.59375 0.375 C 4.4597093 0.617038 4.4520025 0.918711 4.59375 1.15625 L 24.3125 35.625 C 24.414602 35.815136 24.604546 35.915723 24.8125 35.96875 C 24.895593 35.987345 24.981199 36.008806 25.0625 36 C 25.306402 35.973583 25.50181 35.850435 25.625 35.625 L 45.40625 1.15625 C 45.550532 0.91451901 45.546982 0.61887599 45.40625 0.375 C 45.26562 0.131021 44.96724 -0.006844 44.6875 0 L 5.28125 0 z M 19.59375 4.71875 L 22.3125 4.71875 L 22.3125 10 L 27.6875 10 L 27.6875 4.71875 L 30.40625 4.71875 L 30.40625 17.75 L 27.6875 17.75 L 27.6875 11.8125 L 22.3125 11.8125 L 22.3125 17.75 L 19.59375 17.75 L 19.59375 4.71875 z "
       id="path10317" />
  </g>
</svg>
