<?xml version="1.0" encoding="UTF-8" standalone="no"?>
<!-- Created with Inkscape (http://www.inkscape.org/) -->
<svg
   xmlns:dc="http://purl.org/dc/elements/1.1/"
   xmlns:cc="http://creativecommons.org/ns#"
   xmlns:rdf="http://www.w3.org/1999/02/22-rdf-syntax-ns#"
   xmlns:svg="http://www.w3.org/2000/svg"
   xmlns="http://www.w3.org/2000/svg"
   xmlns:sodipodi="http://sodipodi.sourceforge.net/DTD/sodipodi-0.dtd"
   xmlns:inkscape="http://www.inkscape.org/namespaces/inkscape"
   width="50"
   height="37"
   id="svg7978"
   sodipodi:version="0.32"
   inkscape:version="0.46"
   version="1.0"
   sodipodi:docname="H_hi_yellow.svg"
   inkscape:output_extension="org.inkscape.output.svg.inkscape">
  <defs
     id="defs7980">
    <inkscape:perspective
       sodipodi:type="inkscape:persp3d"
       inkscape:vp_x="0 : 526.18109 : 1"
       inkscape:vp_y="0 : 1000 : 0"
       inkscape:vp_z="744.09448 : 526.18109 : 1"
       inkscape:persp3d-origin="372.04724 : 350.78739 : 1"
       id="perspective7986" />
  </defs>
  <sodipodi:namedview
     id="base"
     pagecolor="#ffffff"
     bordercolor="#666666"
     borderopacity="1.0"
     gridtolerance="10000"
     guidetolerance="10"
     objecttolerance="10"
     inkscape:pageopacity="0.0"
     inkscape:pageshadow="2"
     inkscape:zoom="11.390626"
     inkscape:cx="18.543863"
     inkscape:cy="11.85039"
     inkscape:document-units="px"
     inkscape:current-layer="layer1"
     showgrid="false"
     inkscape:window-width="1280"
     inkscape:window-height="952"
     inkscape:window-x="-4"
     inkscape:window-y="-4" />
  <metadata
     id="metadata7983">
    <rdf:RDF>
      <cc:Work
         rdf:about="">
        <dc:format>image/svg+xml</dc:format>
        <dc:type
           rdf:resource="http://purl.org/dc/dcmitype/StillImage" />
      </cc:Work>
    </rdf:RDF>
  </metadata>
  <g
     inkscape:label="Layer 1"
     inkscape:groupmode="layer"
     id="layer1">
    <path
       style="font-size:14.00498962px;fill:#000000;fill-opacity:1;fill-rule:nonzero;stroke:none;stroke-width:1.77330697;stroke-linecap:round;stroke-linejoin:round;marker:none;stroke-miterlimit:4;stroke-dasharray:none;stroke-dashoffset:0;stroke-opacity:1;visibility:visible;display:inline;overflow:visible;enable-background:accumulate"
       d="M 6.28125,37.001795 C 6.0063755,36.998731 5.7277907,36.868937 5.59375,36.626795 C 5.4597093,36.384757 5.4520025,36.083084 5.59375,35.845545 L 25.3125,1.3767948 C 25.414602,1.1866588 25.604546,1.0860718 25.8125,1.0330448 C 25.895593,1.0144498 25.981199,0.99298879 26.0625,1.0017948 C 26.306402,1.0282118 26.50181,1.1513598 26.625,1.3767948 L 46.40625,35.845545 C 46.550532,36.087276 46.546982,36.382919 46.40625,36.626795 C 46.26562,36.870774 45.96724,37.008639 45.6875,37.001795 L 6.28125,37.001795 z M 20.59375,32.283045 L 23.3125,32.283045 L 23.3125,27.001795 L 28.6875,27.001795 L 28.6875,32.283045 L 31.40625,32.283045 L 31.40625,19.251795 L 28.6875,19.251795 L 28.6875,25.189295 L 23.3125,25.189295 L 23.3125,19.251795 L 20.59375,19.251795 L 20.59375,32.283045 z"
       id="path5732" />
    <path
       style="font-size:14.00498962px;fill:#ffd000;fill-opacity:1;fill-rule:nonzero;stroke:none;stroke-width:1.77330697;stroke-linecap:round;stroke-linejoin:round;marker:none;stroke-miterlimit:4;stroke-dasharray:none;stroke-dashoffset:0;stroke-opacity:1;visibility:visible;display:inline;overflow:visible;enable-background:accumulate"
       d="M 5.28125,36.001795 C 5.0063755,35.998731 4.7277907,35.868937 4.59375,35.626795 C 4.4597093,35.384757 4.4520025,35.083084 4.59375,34.845545 L 24.3125,0.37679484 C 24.414602,0.18665884 24.604546,0.086071839 24.8125,0.033044839 C 24.895593,0.014449839 24.981199,-0.0070111611 25.0625,0.0017948389 C 25.306402,0.028211839 25.50181,0.15135984 25.625,0.37679484 L 45.40625,34.845545 C 45.550532,35.087276 45.546982,35.382919 45.40625,35.626795 C 45.26562,35.870774 44.96724,36.008639 44.6875,36.001795 L 5.28125,36.001795 z M 19.59375,31.283045 L 22.3125,31.283045 L 22.3125,26.001795 L 27.6875,26.001795 L 27.6875,31.283045 L 30.40625,31.283045 L 30.40625,18.251795 L 27.6875,18.251795 L 27.6875,24.189295 L 22.3125,24.189295 L 22.3125,18.251795 L 19.59375,18.251795 L 19.59375,31.283045 z"
       id="path10317" />
  </g>
</svg>
